<svg width="200" height="200" xmlns="http://www.w3.org/2000/svg" xmlns:xlink="http://www.w3.org/1999/xlink" overflow="hidden"><g transform="translate(-1374 -260)"><g><g><g><path d="M47.4375 169.125 47.4375 28.875 99 28.875 99 72.1875 150.562 72.1875 150.562 169.125 47.4375 169.125ZM111.375 34.0312 137.156 59.8125 111.375 59.8125 111.375 34.0312ZM111.375 16.5 35.0625 16.5 35.0625 181.5 162.938 181.5 162.938 61.875 111.375 16.5Z" fill="#FF0000" transform="matrix(1.00505 0 0 1 1374 261)"/><path d="M59.8125 92.8125 138.188 92.8125 138.188 101.062 59.8125 101.062Z" fill="#FF0000" transform="matrix(1.00505 0 0 1 1374 261)"/><path d="M59.8125 76.3125 86.625 76.3125 86.625 84.5625 59.8125 84.5625Z" fill="#FF0000" transform="matrix(1.00505 0 0 1 1374 261)"/><path d="M59.8125 109.312 138.188 109.312 138.188 117.562 59.8125 117.562Z" fill="#FF0000" transform="matrix(1.00505 0 0 1 1374 261)"/><path d="M59.8125 125.812 138.188 125.812 138.188 134.062 59.8125 134.062Z" fill="#FF0000" transform="matrix(1.00505 0 0 1 1374 261)"/><path d="M59.8125 142.312 138.188 142.312 138.188 150.562 59.8125 150.562Z" fill="#FF0000" transform="matrix(1.00505 0 0 1 1374 261)"/></g></g></g></g></svg>