<svg width="200" height="200" xmlns="http://www.w3.org/2000/svg" xmlns:xlink="http://www.w3.org/1999/xlink" overflow="hidden"><g transform="translate(-981 -264)"><g><g><g><path d="M1142.88 370.188C1137.1 370.188 1132.56 366.888 1132.56 362.969 1132.56 359.05 1137.1 355.75 1142.88 355.75 1148.65 355.75 1153.19 359.05 1153.19 362.969 1153.19 366.888 1148.65 370.188 1142.88 370.188ZM1132.56 392.875C1126.79 392.875 1122.25 389.575 1122.25 385.656 1122.25 381.737 1126.79 378.438 1132.56 378.438 1138.34 378.438 1142.88 381.737 1142.88 385.656 1142.88 389.575 1138.34 392.875 1132.56 392.875ZM1109.88 335.125C1104.1 335.125 1099.56 331.825 1099.56 327.906 1099.56 323.987 1104.1 320.688 1109.88 320.688 1115.65 320.688 1120.19 323.987 1120.19 327.906 1120.19 331.825 1115.65 335.125 1109.88 335.125ZM1109.88 405.25C1104.1 405.25 1099.56 401.95 1099.56 398.031 1099.56 394.112 1104.1 390.812 1109.88 390.812 1115.65 390.812 1120.19 394.112 1120.19 398.031 1120.19 401.95 1115.65 405.25 1109.88 405.25ZM1081 411.438C1075.22 411.438 1070.69 408.138 1070.69 404.219 1070.69 400.3 1075.22 397 1081 397 1086.78 397 1091.31 400.3 1091.31 404.219 1091.31 408.138 1086.78 411.438 1081 411.438ZM1069.86 328.112C1073.16 324.812 1077.49 324.194 1079.76 326.462 1082.03 328.731 1081.21 333.062 1078.11 336.362 1074.81 339.663 1070.48 340.281 1068.21 338.013 1065.74 335.744 1066.56 331.206 1069.86 328.112ZM1052.12 407.312C1046.35 407.312 1041.81 404.013 1041.81 400.094 1041.81 396.175 1046.35 392.875 1052.12 392.875 1057.9 392.875 1062.44 396.175 1062.44 400.094 1062.44 404.013 1057.9 407.312 1052.12 407.312ZM1132.56 335.125C1138.34 335.125 1142.88 338.425 1142.88 342.344 1142.88 346.263 1138.34 349.562 1132.56 349.562 1126.79 349.562 1122.25 346.263 1122.25 342.344 1122.25 338.425 1126.79 335.125 1132.56 335.125ZM1081 306.25C1034.18 306.25 1041.61 324.606 1045.94 328.938L1056.25 339.25C1062.85 346.056 1054.81 353.688 1047.18 350.388L1021.39 339.25C1003.24 331.413 998.5 353.481 998.5 364 998.5 395.969 1035.42 421.75 1081 421.75 1126.58 421.75 1163.5 395.969 1163.5 364 1163.5 332.031 1126.58 306.25 1081 306.25Z" fill="#FF0000"/></g></g></g></g></svg>