<svg width="200" height="200" xmlns="http://www.w3.org/2000/svg" xmlns:xlink="http://www.w3.org/1999/xlink" overflow="hidden"><g transform="translate(-981 -264)"><g><g><g><path d="M1029.44 293.875 1132.56 293.875 1132.56 434.125 1029.44 434.125 1029.44 293.875ZM1017.06 446.5 1144.94 446.5 1144.94 281.5 1017.06 281.5 1017.06 446.5Z" fill="#FF0000"/><path d="M1041.81 312.438 1076.88 312.438 1076.88 320.688 1041.81 320.688Z" fill="#FF0000"/><path d="M1041.81 345.438 1076.88 345.438 1076.88 353.688 1041.81 353.688Z" fill="#FF0000"/><path d="M1041.81 411.438 1076.88 411.438 1076.88 419.688 1041.81 419.688Z" fill="#FF0000"/><path d="M1041.81 378.438 1076.88 378.438 1076.88 386.688 1041.81 386.688Z" fill="#FF0000"/><path d="M1120.19 307.9 1114.41 302.125 1100.8 315.737 1095.44 310.375 1089.66 316.15 1100.8 327.288Z" fill="#FF0000"/><path d="M1120.19 340.9 1114.41 335.125 1100.8 348.737 1095.44 343.375 1089.66 349.15 1100.8 360.288Z" fill="#FF0000"/><path d="M1120.19 373.9 1114.41 368.125 1100.8 381.737 1095.44 376.375 1089.66 382.15 1100.8 393.288Z" fill="#FF0000"/><path d="M1120.19 406.487 1114.41 400.713 1100.8 414.325 1095.44 408.963 1089.66 414.737 1100.8 425.875Z" fill="#FF0000"/></g></g></g></g></svg>