<svg width="200" height="200" xmlns="http://www.w3.org/2000/svg" xmlns:xlink="http://www.w3.org/1999/xlink" overflow="hidden"><g transform="translate(-981 -264)"><g><g><g><path d="M1104.31 341.931C1095.64 341.931 1088.84 334.919 1088.84 326.462 1088.84 318.006 1095.85 310.994 1104.31 310.994 1112.97 310.994 1119.78 318.006 1119.78 326.462 1119.78 334.919 1112.76 341.931 1104.31 341.931ZM1139.16 316.769C1138.34 313.881 1137.31 311.2 1135.86 308.725L1139.16 299.031 1131.74 291.606 1122.04 294.906C1119.57 293.462 1116.89 292.431 1114 291.606L1109.46 282.531 1099.15 282.531 1094.61 291.606C1091.72 292.431 1089.04 293.462 1086.57 294.906L1076.88 291.606 1069.45 299.031 1072.75 308.725C1071.31 311.2 1070.28 313.881 1069.45 316.769L1060.38 321.306 1060.38 331.619 1069.45 336.156C1070.28 339.044 1071.31 341.725 1072.75 344.2L1069.45 353.894 1076.67 361.112 1086.36 357.812C1088.84 359.256 1091.52 360.288 1094.41 361.112L1098.94 370.188 1109.26 370.188 1113.79 361.112C1116.68 360.288 1119.36 359.256 1121.84 357.812L1131.53 361.112 1138.96 353.894 1135.66 344.2C1137.1 341.725 1138.34 338.837 1139.16 336.156L1148.24 331.619 1148.24 321.306 1139.16 316.769Z" fill="#FF0000"/><path d="M1057.69 417.006C1049.03 417.006 1042.22 409.994 1042.22 401.537 1042.22 392.875 1049.24 386.069 1057.69 386.069 1066.36 386.069 1073.16 393.081 1073.16 401.537 1073.16 409.994 1066.36 417.006 1057.69 417.006L1057.69 417.006ZM1089.25 383.8 1092.55 374.106 1085.12 366.681 1075.43 369.981C1072.96 368.538 1070.07 367.506 1067.39 366.681L1062.85 357.606 1052.54 357.606 1048 366.681C1045.11 367.506 1042.43 368.538 1039.96 369.981L1030.26 366.681 1023.04 373.9 1026.14 383.594C1024.69 386.069 1023.66 388.956 1022.84 391.638L1013.76 396.175 1013.76 406.487 1022.84 411.025C1023.66 413.912 1024.69 416.594 1026.14 419.069L1023.04 428.763 1030.26 435.981 1039.96 432.888C1042.43 434.331 1045.11 435.362 1048 436.188L1052.54 445.263 1062.85 445.263 1067.39 436.188C1070.28 435.362 1072.96 434.331 1075.43 432.888L1085.12 436.188 1092.34 428.763 1089.25 419.275C1090.69 416.8 1091.72 414.119 1092.55 411.231L1101.62 406.694 1101.62 396.381 1092.55 391.844C1091.72 388.956 1090.69 386.275 1089.25 383.8Z" fill="#FF0000"/></g></g></g></g></svg>