<svg width="107" height="108" xmlns="http://www.w3.org/2000/svg" xmlns:xlink="http://www.w3.org/1999/xlink" overflow="hidden"><g transform="translate(-1164 -50)"><g><g><g><path d="M1220.66 96.2708 1229.67 105.281C1231.88 102.77 1233.21 99.6066 1233.46 96.2708Z" fill="#FF0000"/><path d="M1216.9 95.6194 1216.9 79.7635C1208.38 80.3491 1201.95 87.7284 1202.53 96.2458 1203.12 104.763 1210.5 111.193 1219.02 110.607 1222.38 110.376 1225.57 109.052 1228.11 106.838Z" fill="#FF0000"/><path d="M1219.1 94.0625 1233.46 94.0625C1232.9 86.3879 1226.78 80.2929 1219.1 79.7635Z" fill="#FF0000"/><path d="M1248.92 75.2917 1248.92 115.042 1187.08 115.042 1187.08 75.2917ZM1257.75 117.25 1255.54 117.25 1255.54 71.9792 1257.75 71.9792C1258.97 71.9792 1259.96 70.9905 1259.96 69.7708 1259.96 68.5512 1258.97 67.5625 1257.75 67.5625L1220.21 67.5625 1220.21 65.3542C1220.21 64.1345 1219.22 63.1458 1218 63.1458 1216.78 63.1458 1215.79 64.1345 1215.79 65.3542L1215.79 67.5625 1178.25 67.5625C1177.03 67.5625 1176.04 68.5512 1176.04 69.7708 1176.04 70.9905 1177.03 71.9792 1178.25 71.9792L1180.46 71.9792 1180.46 117.25 1178.25 117.25C1177.03 117.25 1176.04 118.239 1176.04 119.458 1176.04 120.678 1177.03 121.667 1178.25 121.667L1211.97 121.667 1194.97 138.671C1194.1 139.543 1194.11 140.949 1194.98 141.812 1195.86 142.675 1197.26 142.668 1198.12 141.796L1215.79 124.129 1215.79 143.75C1215.79 144.97 1216.78 145.958 1218 145.958 1219.22 145.958 1220.21 144.97 1220.21 143.75L1220.21 124.096 1237.88 141.762C1238.74 142.625 1240.14 142.625 1241 141.762 1241.86 140.9 1241.86 139.501 1241 138.638L1224.03 121.667 1257.75 121.667C1258.97 121.667 1259.96 120.678 1259.96 119.458 1259.96 118.239 1258.97 117.25 1257.75 117.25Z" fill="#FF0000"/></g></g></g></g></svg>