<svg width="200" height="200" xmlns="http://www.w3.org/2000/svg" xmlns:xlink="http://www.w3.org/1999/xlink" overflow="hidden"><g transform="translate(-262 -387)"><g><g><g><path d="M357.071 528.539C357.071 533.71 352.878 537.902 347.707 537.902 342.535 537.902 338.343 533.71 338.343 528.539 338.343 523.367 342.535 519.175 347.707 519.175 352.878 519.175 357.071 523.367 357.071 528.539Z" fill="#FF0000"/><path d="M366.125 559.188 366.125 549.824C366.094 548.365 365.414 546.995 364.269 546.091 361.578 544.017 358.499 542.502 355.214 541.636 352.735 540.875 350.156 540.485 347.562 540.481 344.972 540.521 342.398 540.909 339.911 541.636 336.662 542.597 333.6 544.104 330.856 546.091 329.711 546.995 329.031 548.365 329 549.824L329 559.188Z" fill="#FF0000"/><path d="M398.032 528.539C398.032 533.71 393.84 537.902 388.668 537.902 383.497 537.902 379.304 533.71 379.304 528.539 379.304 523.367 383.497 519.175 388.668 519.175 393.84 519.175 398.032 523.367 398.032 528.539Z" fill="#FF0000"/><path d="M407.375 559.188 407.375 549.824C407.344 548.365 406.664 546.995 405.519 546.091 402.828 544.017 399.749 542.502 396.464 541.636 393.985 540.875 391.406 540.485 388.812 540.481 386.222 540.521 383.648 540.909 381.161 541.636 377.912 542.597 374.85 544.104 372.106 546.091 370.961 546.995 370.281 548.365 370.25 549.824L370.25 559.188Z" fill="#FF0000"/><path d="M439.282 528.539C439.282 533.71 435.09 537.902 429.918 537.902 424.747 537.902 420.554 533.71 420.554 528.539 420.554 523.367 424.747 519.175 429.918 519.175 435.09 519.175 439.282 523.367 439.282 528.539Z" fill="#FF0000"/><path d="M448.625 559.188 448.625 549.824C448.594 548.365 447.914 546.995 446.769 546.091 444.078 544.017 440.999 542.502 437.714 541.636 435.235 540.875 432.656 540.485 430.062 540.481 427.472 540.521 424.898 540.909 422.411 541.636 419.162 542.597 416.1 544.104 413.356 546.091 412.211 546.995 411.531 548.365 411.5 549.824L411.5 559.188Z" fill="#FF0000"/><path d="M319.554 441.955C319.554 448.721 314.069 454.206 307.302 454.206 300.536 454.206 295.051 448.721 295.051 441.955 295.051 435.189 300.536 429.704 307.302 429.704 314.069 429.704 319.554 435.189 319.554 441.955Z" fill="#FF0000"/><path d="M379.552 437.232C378.339 436.037 376.392 436.037 375.179 437.232L348.532 463.879C346.402 463.278 344.114 463.86 342.53 465.406 342.097 465.839 334.404 478.42 334.404 478.42L332.094 468.582C331.788 467.313 331.155 466.147 330.258 465.199 326.457 462.126 322.082 459.841 317.388 458.476 314.07 457.766 310.694 457.359 307.302 457.259 303.881 457.312 300.481 457.825 297.196 458.785 292.46 460.027 288.067 462.326 284.347 465.509 283.442 466.451 282.808 467.619 282.511 468.891 282.511 468.891 273.622 506.223 273.622 506.841 273.622 510.259 276.392 513.029 279.809 513.029 282.548 512.958 284.914 511.096 285.626 508.45L292.061 481.823 292.061 567.438 304.25 567.438 304.25 512.348 310.438 512.348 310.438 567.438 322.606 567.438 322.606 481.431 324.875 491.125C325.032 491.795 325.478 492.361 326.092 492.672 328.464 494.492 331.353 495.511 334.342 495.58 336.288 495.852 338.216 494.977 339.292 493.332L351.873 472.707C352.677 471.439 352.979 469.916 352.719 468.438L379.531 441.625C380.746 440.416 380.755 438.452 379.552 437.232Z" fill="#FF0000"/><path d="M421.812 408.625 320.75 408.625C316.194 408.625 312.5 412.319 312.5 416.875L312.5 424.3C315.654 425.158 318.508 426.872 320.75 429.25L320.75 416.875 421.812 416.875 421.812 484.938 351.419 484.938 346.387 493.188 421.812 493.188C426.369 493.188 430.062 489.494 430.062 484.938L430.062 416.875C430.062 412.319 426.369 408.625 421.812 408.625Z" fill="#FF0000"/></g></g></g></g></svg>