<svg width="200" height="200" xmlns="http://www.w3.org/2000/svg" xmlns:xlink="http://www.w3.org/1999/xlink" overflow="hidden"><g transform="translate(-981 -264)"><g><g><g><path d="M1060.38 351.625C1060.38 358.46 1054.83 364 1048 364 1041.17 364 1035.62 358.46 1035.62 351.625 1035.62 344.79 1041.17 339.25 1048 339.25 1054.83 339.25 1060.38 344.79 1060.38 351.625Z" fill="#FF0000"/><path d="M1126.38 351.625C1126.38 358.46 1120.83 364 1114 364 1107.17 364 1101.62 358.46 1101.62 351.625 1101.62 344.79 1107.17 339.25 1114 339.25 1120.83 339.25 1126.38 344.79 1126.38 351.625Z" fill="#FF0000"/><path d="M1118.54 390.812C1117.09 390.812 1115.86 391.431 1115.24 392.462 1107.4 402.775 1095.03 409.169 1081 409.169 1066.97 409.169 1054.81 402.775 1046.76 392.462 1045.94 391.431 1044.7 390.812 1043.46 390.812 1041.19 390.812 1039.34 392.669 1039.34 394.938 1039.34 395.763 1039.54 396.587 1040.16 397.412 1049.65 409.787 1064.29 417.625 1081 417.625 1097.71 417.625 1112.35 409.787 1121.84 397.412 1122.25 396.794 1122.66 395.969 1122.66 394.938 1122.66 392.669 1120.81 390.812 1118.54 390.812Z" fill="#FF0000"/><path d="M1081 293.875C1119.57 293.875 1151.12 325.431 1151.12 364 1151.12 402.569 1119.57 434.125 1081 434.125 1042.43 434.125 1010.88 402.569 1010.88 364 1010.88 325.431 1042.43 293.875 1081 293.875M1081 285.625C1037.69 285.625 1002.62 320.688 1002.62 364 1002.62 407.312 1037.69 442.375 1081 442.375 1124.31 442.375 1159.38 407.312 1159.38 364 1159.38 320.688 1124.31 285.625 1081 285.625L1081 285.625Z" fill="#FF0000"/></g></g></g></g></svg>