<svg width="200" height="200" xmlns="http://www.w3.org/2000/svg" xmlns:xlink="http://www.w3.org/1999/xlink" overflow="hidden"><g transform="translate(-981 -264)"><g><g><g><path d="M1062.4 318.604C1062.4 332.262 1051.32 343.334 1037.67 343.334 1024.01 343.334 1012.94 332.262 1012.94 318.604 1012.94 304.947 1024.01 293.875 1037.67 293.875 1051.32 293.875 1062.4 304.947 1062.4 318.604Z" fill="#FF0000"/><path d="M1148.34 297.732 1078.94 315.057 1078.94 334.898 1092.65 338.342 1094.08 344.427C1092.72 344.93 1091.5 345.726 1090.49 346.758L1070.46 366.764 1061.18 366.764C1056.69 353.854 1042.58 347.031 1029.67 351.523 1019.92 354.914 1013.31 363.996 1013.06 374.312L1013.06 434.125 1062.44 434.125 1062.44 387.389 1074.81 387.389C1077.55 387.394 1080.18 386.31 1082.11 384.378L1105.15 361.339C1107.67 358.784 1108.67 355.105 1107.81 351.625L1114 353.151 1114.85 353.151C1115.79 353.144 1116.69 352.722 1117.3 351.996L1122.77 345.603 1148.32 351.996C1149.65 352.205 1150.89 351.297 1151.1 349.97 1151.11 349.903 1151.12 349.836 1151.12 349.769L1151.12 299.836C1151.1 298.606 1150.08 297.632 1148.85 297.662 1148.67 297.666 1148.51 297.689 1148.34 297.732ZM1114.47 348.593 1104.39 346.139C1102.75 344.772 1100.72 343.956 1098.59 343.808L1097.62 339.456 1118 344.448Z" fill="#FF0000"/><path d="M1071.8 333.496C1073.46 333.496 1074.81 332.147 1074.81 330.484L1074.81 318.109C1074.81 316.446 1073.46 315.098 1071.8 315.098 1070.14 315.098 1068.79 316.446 1068.79 318.109L1068.79 330.484C1068.79 332.147 1070.14 333.496 1071.8 333.496Z" fill="#FF0000"/></g></g></g></g></svg>