<svg width="200" height="200" xmlns="http://www.w3.org/2000/svg" xmlns:xlink="http://www.w3.org/1999/xlink" overflow="hidden"><g transform="translate(-981 -264)"><g><g><g><path d="M1163.71 284.388C1159.38 280.056 1154.43 281.294 1152.57 283.15L1069.24 360.288 1050.68 383.181C1049.44 385.45 1050.68 389.369 1053.57 392.256L1055.43 394.112C1058.31 397 1062.23 398.444 1064.5 397L1087.39 378.438 1164.94 295.112C1167.01 292.844 1167.83 288.719 1163.71 284.388Z" fill="#FF0000"/><path d="M1015.62 400.506C1009.22 407.106 1011.08 414.944 1010.05 422.575 1008.81 435.775 998.294 440.106 995.406 441.138 1012.32 453.719 1034.8 444.438 1047.18 432.062 1055.84 423.4 1055.84 409.169 1047.18 400.506 1038.51 391.844 1024.28 391.844 1015.62 400.506Z" fill="#FF0000"/></g></g></g></g></svg>