<svg width="107" height="107" xmlns="http://www.w3.org/2000/svg" xmlns:xlink="http://www.w3.org/1999/xlink" overflow="hidden"><g transform="translate(-324 -38)"><g><g><g><path d="M365.958 108.667 388.042 108.667C389.919 108.667 391.354 110.102 391.354 111.979 391.354 113.856 389.919 115.292 388.042 115.292L365.958 115.292C364.081 115.292 362.646 113.856 362.646 111.979 362.646 110.102 364.081 108.667 365.958 108.667Z" fill="#FF0000"/><path d="M365.958 119.708 388.042 119.708C389.919 119.708 391.354 121.144 391.354 123.021 391.354 124.898 389.919 126.333 388.042 126.333L365.958 126.333C364.081 126.333 362.646 124.898 362.646 123.021 362.646 121.144 364.081 119.708 365.958 119.708Z" fill="#FF0000"/><path d="M369.823 130.75C370.154 134.504 373.246 137.375 377 137.375 380.754 137.375 383.846 134.504 384.177 130.75L369.823 130.75Z" fill="#FF0000"/><path d="M377 44.625C377 44.625 377 44.625 377 44.625 377 44.625 377 44.625 377 44.625 361.321 44.7354 348.623 57.3229 348.292 73.0021L348.292 73.9958C348.402 77.4187 349.065 80.7312 350.279 83.9333 351.494 86.9146 353.15 89.675 355.248 92.1042 357.898 94.975 360.769 100.606 361.983 103.035 362.315 103.808 363.087 104.25 363.971 104.25L390.029 104.25C390.913 104.25 391.685 103.808 392.017 103.035 393.231 100.606 396.102 94.975 398.752 92.1042 400.85 89.675 402.617 86.9146 403.721 83.9333 404.935 80.7312 405.598 77.4187 405.708 73.9958L405.708 73.0021C405.377 57.3229 392.679 44.7354 377 44.625ZM399.083 73.8854C398.973 76.5354 398.421 79.1854 397.538 81.6146 396.654 83.8229 395.44 85.9208 393.783 87.6875 391.244 90.7792 389.035 94.0917 387.379 97.625L377 97.625 366.731 97.625C364.965 94.0917 362.756 90.7792 360.327 87.6875 358.781 85.9208 357.456 83.8229 356.573 81.6146 355.579 79.1854 355.138 76.5354 355.027 73.8854L355.027 73.0021C355.248 60.9667 365.075 51.25 377.11 51.1396L377.11 51.1396 377.11 51.1396C377.11 51.1396 377.11 51.1396 377.11 51.1396 377.11 51.1396 377.11 51.1396 377.11 51.1396L377.11 51.1396 377.11 51.1396C389.146 51.25 398.973 60.8563 399.194 73.0021L399.194 73.8854Z" fill="#FF0000"/></g></g></g></g></svg>