<svg width="200" height="200" xmlns="http://www.w3.org/2000/svg" xmlns:xlink="http://www.w3.org/1999/xlink" overflow="hidden"><g transform="translate(-262 -387)"><g><g><g><path d="M305.921 538.397C303.935 531.487 296.99 527.248 289.936 528.642L271.25 472.253C270.891 471.171 269.723 470.585 268.641 470.943 267.559 471.302 266.972 472.47 267.331 473.552L286.017 529.611C280.078 531.282 277.169 533.53 279.995 544.915 283.254 557.909 287.523 556.836 295.258 554.918 302.744 553.272 307.504 545.898 305.921 538.397Z" fill="#FF0000"/><path d="M395 449.875C395 468.1 380.225 482.875 362 482.875 343.775 482.875 329 468.1 329 449.875 329 431.65 343.775 416.875 362 416.875 380.225 416.875 395 431.65 395 449.875Z" fill="#FF0000"/><path d="M300.723 557.125 353.75 557.125 353.75 509.688 419.75 509.688C410.548 503.04 400.201 498.146 389.225 495.25 380.401 492.549 371.228 491.159 362 491.125 352.782 491.284 343.626 492.671 334.775 495.25 323.24 498.616 312.36 503.916 302.6 510.925 298.531 514.112 296.108 518.958 296 524.125L296 524.661C302.732 525.826 308.169 530.804 309.922 537.407 311.72 545.31 307.934 553.426 300.723 557.125Z" fill="#FF0000"/><path d="M359.938 515.875 359.938 572.367 388.812 572.367C388.812 574.169 390.249 575.643 392.051 575.688L403.126 575.688C404.964 575.688 406.456 574.204 406.467 572.367L435.342 572.367 435.342 515.875ZM366.579 565.726 366.579 522.413 395.454 522.413 395.454 565.726ZM428.619 565.726 399.744 565.726 399.744 522.413 428.619 522.413Z" fill="#FF0000"/><path d="M406.467 533.592 421.977 533.592 421.977 536.912 406.467 536.912Z" fill="#FF0000"/><path d="M406.467 540.233 421.977 540.233 421.977 543.554 406.467 543.554Z" fill="#FF0000"/><path d="M406.467 546.895 417.213 546.895 417.213 550.216 406.467 550.216Z" fill="#FF0000"/></g></g></g></g></svg>