<svg width="107" height="107" xmlns="http://www.w3.org/2000/svg" xmlns:xlink="http://www.w3.org/1999/xlink" overflow="hidden"><g transform="translate(-735 -32)"><g><g><g><path d="M787.139 67.8633C788.639 68.8255 789.813 70.2188 790.506 71.8604L799.108 63.259 799.483 62.9167C799.152 60.8143 797.179 59.3786 795.077 59.7097 794.27 59.8369 793.524 60.2175 792.947 60.7967L786.322 67.4217C786.598 67.5652 786.896 67.6977 787.139 67.8633Z" fill="#FF0000"/><path d="M757.525 110.904 759.38 109.049 762.394 106.034 761.158 96.3619 761.158 96.2846C760.945 94.4091 761.311 92.5135 762.207 90.8521L762.284 90.7085 762.372 90.576 775.092 70.5575C775.657 69.6685 776.379 68.8902 777.223 68.2608 776.505 66.013 774.1 64.7734 771.852 65.4922 770.866 65.8075 770.029 66.4694 769.494 67.3554L756.796 87.3629C756.331 88.2396 756.143 89.2367 756.255 90.2227L757.768 102.048 753.219 106.597Z" fill="#FF0000"/><path d="M821.644 92.4642C820.166 90.958 817.748 90.9347 816.241 92.4123 816.224 92.4294 816.206 92.4467 816.189 92.4642L804.353 104.29C804.008 104.59 803.494 104.59 803.149 104.29 802.842 103.943 802.842 103.422 803.149 103.075L821.037 85.1877C822.561 83.6815 822.576 81.2245 821.07 79.7 819.564 78.1755 817.107 78.1607 815.582 79.6669L797.684 97.6206C797.323 97.9309 796.779 97.8902 796.469 97.5295 796.191 97.2066 796.191 96.729 796.469 96.406L818.066 74.8085C819.573 73.284 819.558 70.827 818.033 69.3208 816.509 67.8146 814.052 67.8294 812.546 69.354L791.014 90.9404C790.654 91.2507 790.11 91.2099 789.8 90.8493 789.522 90.5265 789.522 90.0488 789.8 89.7258L807.687 71.8383C809.193 70.3321 809.193 67.8899 807.687 66.3837 806.181 64.8776 803.739 64.8776 802.233 66.3837L784.345 84.2712 777.367 91.2496 786.101 77.5358C787.333 75.5017 786.683 72.8538 784.649 71.6214 782.671 70.4228 780.099 71.0012 778.824 72.9315L766.082 92.9389C765.617 93.8157 765.429 94.8127 765.541 95.7988L767.021 107.624 760.628 114.017 778.25 131.607 783.131 126.726C787.437 122.42 792.593 126.969 800.72 118.843L821.644 97.8635C823.122 96.3671 823.122 93.9606 821.644 92.4642Z" fill="#FF0000"/><path d="M793.521 39.7292 797.938 39.7292 797.938 50.7708 793.521 50.7708Z" fill="#FF0000"/><path d="M800.713 51.5032 808.654 43.8317 811.723 47.0082 803.781 54.6798Z" fill="#FF0000"/><path d="M779.739 47.0051 782.808 43.8286 790.749 51.5001 787.68 54.6767Z" fill="#FF0000"/></g></g></g></g></svg>